<svg xmlns="http://www.w3.org/2000/svg" viewBox="0 0 316 212" fill="#ffffff"><path d="M17 163.3L0 211.7h11l3.5-11.5h17.6l3.5 11.5h11l-17.1-48.4H17zm.1 28.3c3.4-11.1 5.5-18.1 6.2-20.9.2.8.5 1.9.9 3.2.4 1.4 2.2 7.2 5.5 17.7H17.1zM45.7 171.8h10v39.9h9.1v-48.5H51zM74 171.8h10v39.9h9.2v-48.5H79.4zM130.5 163.5l-10 19.8-10-19.8H99.4l16 29.8v18.4h10.1v-18.8l16-29.4zM154.5 163.3l-17 48.4h11l3.5-11.5h17.6l3.5 11.5h11L167 163.3h-12.5zm.1 28.3c3.4-11.1 5.5-18.1 6.2-20.9.2.8.5 1.9.9 3.2.4 1.4 2.2 7.2 5.5 17.7h-12.6zM223.8 186.3c0 2.6.2 7 .5 13.3h-.2l-21-36.1h-12.9v48.3h9.1V189c0-2.7-.2-7.3-.6-13.8h.3l21 36.5h13v-48.3h-9.2v22.9zM265.6 171.3c1.8 0 3.6.3 5.4 1 1.8.6 3.6 1.4 5.4 2.2l3.3-8.3c-4.7-2.3-9.4-3.4-14.1-3.4-4.6 0-8.6 1-12 3-3.4 2-6 4.9-7.9 8.7-1.8 3.8-2.7 8.2-2.7 13.2 0 8 1.9 14.1 5.6 18.3 3.7 4.3 9.1 6.4 16.1 6.4 4.9 0 9.3-.8 13.3-2.5v-8.6c-4.8 1.7-8.9 2.5-12.3 2.5-8.1 0-12.1-5.4-12.1-16.1 0-5.2 1.1-9.2 3.2-12.1 2-2.9 5-4.3 8.8-4.3zM316 171.8v-8.3h-27.8v48.2H316v-8.4h-17.6v-12.5h16.4v-8.4h-16.4v-10.6z"/><circle cx="158.7" cy="17.9" r="6.1"/><path d="M169.7 3.5c2.8 2.1 5 5.1 6.2 8.6l.2.5.6 1.8h-.1c.2 1.2.4 2.4.4 3.6 0 10-8.1 18.1-18.1 18.1S140.8 28 140.8 18c0-1.2.1-2.4.4-3.6h-.1l.6-1.8.2-.5c1.2-3.5 3.4-6.4 6.2-8.6C126 7 107.7 21.1 98.3 40.3h120.8C209.8 21.1 191.5 7 169.7 3.5zM158.7 59.6c-.7 2.5-1.6 5.2-2.6 8l-9.9 26.1h25l-9.8-26.1c-.8-2.3-1.7-5-2.7-8zM141.4 106.2l-9.7 25c8.3 3.7 17.4 5.7 27.1 5.7 9.5 0 18.6-2 26.8-5.6l-9.8-25.2h-34.4zM197.1 124.9c17.4-12.1 28.8-32.3 28.8-55.1 0-6-.8-11.8-2.3-17.4h-54.9l28.4 72.5zM120.4 124.8l28.5-72.5h-55c-1.5 5.5-2.3 11.4-2.3 17.4 0 22.9 11.4 43 28.8 55.1z"/></svg>
