<svg xmlns="http://www.w3.org/2000/svg" width="608" height="166" viewBox="-3.536 -3.51 608 166"><path fill="#ffffff" d="M600.464 130.893h-22.555l-15.137-24.629-8.206 9.304v15.325h-19.569V32.934h19.569v59.035l21.398-26.714h23.149l-24.358 27.508 25.709 38.13zM437.01 118.491c-9.712 0-14.787-4.882-15.962-15.325h32.294V89.47H421.395c1.469-7.327 5.277-10.493 12.689-10.493l19.258.005V65.254h-18.748l-1.932.076c-19.293.79-29.497 12.201-29.497 33.183 0 22.014 11.243 34.136 31.648 34.136 8.646 0 16.836-1.756 25.03-5.361l-4.367-12.691c-6.809 2.574-13.019 3.894-18.466 3.894zm70.214-35.685a15.634 15.634 0 012.908.025c2.188.222 4.168.896 5.902 1.868l5.923-17.221c-1.998-1.236-3.974-2.136-5.905-2.735l-.212-.069c-7.055-2.107-13.535-.209-18.507 3.752-2.603 1.864-5.248 4.371-8.09 7.618l-.924 1.055V65.255h-19.422v65.638h19.569V96.311l.085-.131c2.012-3.074 4.01-5.563 6.066-7.534 4.569-3.784 8.827-5.51 12.607-5.84zM373.703 105.4l-15.452-40.146h-13.455l-14.68 40.254-8.927-40.254h-20.231l18.854 65.639h14.604l16.592-40.652 16.442 40.652h14.454l18.137-65.639h-18.762l-7.576 40.146zm124.38 2.964l14.22 22.54h22.562l-21.209-29.601-15.573 7.061zM158.587 79.49c0 43.666-35.399 79.061-79.063 79.061S.464 123.156.464 79.49c0-2.315.122-4.604.315-6.871l30.614-34.057-10.624-11.96a79.767 79.767 0 019.171-8.675l14.897 21.241L23.24 69.365l11.444 8.965 36.008-39.768L43.955 8.886A78.74 78.74 0 0179.524.429c43.666 0 79.063 35.397 79.063 79.061zm-25.411-17.562H64.25V80.34h17.614v11.9c0 26.57 5.269 40.967 33.06 40.967 4.381 0 8.539-.286 12.353-.853l-1.164-16.536c-1.562.235-3.858.235-6.927.235-12.195 0-16.519-6.229-16.519-23.812v-11.9h30.509V61.928zm97.427 34.829c0 22.475-12.813 35.892-34.282 35.892-20.549 0-32.817-12.869-32.817-34.427 0-21.652 12.871-34.579 34.426-34.579 20.459 0 32.673 12.379 32.673 33.114zm-20.007 1.026c0-12.87-4.606-19.395-13.691-19.395-8.792 0-13.25 6.427-13.25 19.101 0 13.45 4.655 20.27 13.836 20.27 8.696 0 13.105-6.722 13.105-19.976zm62.961 5.909h19.567V32.934h-19.567v70.758zm-33.468 27.201h19.567V32.934h-19.567v97.959z"/></svg>
